<?xml version="1.0" encoding="utf-8"?>
<!-- Generator: Adobe Illustrator 16.0.0, SVG Export Plug-In . SVG Version: 6.00 Build 0)  -->
<!DOCTYPE svg PUBLIC "-//W3C//DTD SVG 1.1//EN" "http://www.w3.org/Graphics/SVG/1.1/DTD/svg11.dtd">
<svg version="1.1" id="Layer_1" xmlns="http://www.w3.org/2000/svg" xmlns:xlink="http://www.w3.org/1999/xlink" x="0px" y="0px"
	 width="178.117px" height="234.088px" viewBox="0 0 178.117 234.088" enable-background="new 0 0 178.117 234.088"
	 xml:space="preserve">
<g>
	<path fill="#41CD52" d="M128.275,0H67.067H0v168.689h0.091c37.278,0.518,64.647,9.549,81.347,26.848
		c2.557,2.652,4.862,5.513,6.894,8.564c2.034-3.052,4.338-5.912,6.893-8.564c16.925-17.534,44.797-26.573,82.843-26.87h0.05V49.842
		L128.275,0z M162.231,156.781h-0.044c-31.258,0.243-54.156,7.67-68.062,22.081c-2.099,2.173-3.993,4.527-5.667,7.031
		c-1.668-2.504-3.562-4.858-5.661-7.031c-13.721-14.213-36.207-21.636-66.835-22.058l-0.076-0.004V18.208h55.104l50.289-0.004
		l40.951,40.951V156.781z"/>
	<path fill="#41CD52" d="M100.03,200.175c-5.132,5.315-9.028,11.451-11.699,18.353c-2.67-6.901-6.566-13.037-11.696-18.353
		C61.197,184.181,35.406,175.856,0,175.366v10.383c23.437,0.365,53.315,4.596,69.823,21.7c6.819,7.062,10.964,16.009,12.459,26.639
		h12.098c1.497-10.63,5.643-19.577,12.461-26.639c16.851-17.459,47.633-21.503,71.275-21.716v-10.39
		C141.959,175.621,115.676,183.96,100.03,200.175z"/>
	<g>
		<g>
			<rect x="38.626" y="69.435" fill="#41CD52" width="100.864" height="9.664"/>
			<rect x="38.626" y="97.219" fill="#41CD52" width="100.864" height="9.664"/>
			<rect x="38.626" y="124.999" fill="#41CD52" width="100.864" height="9.663"/>
		</g>
	</g>
</g>
</svg>
