<?xml version="1.0" encoding="utf-8"?>
<!-- Generator: Adobe Illustrator 16.0.0, SVG Export Plug-In . SVG Version: 6.00 Build 0)  -->
<!DOCTYPE svg PUBLIC "-//W3C//DTD SVG 1.1//EN" "http://www.w3.org/Graphics/SVG/1.1/DTD/svg11.dtd">
<svg version="1.1" id="Layer_1" xmlns="http://www.w3.org/2000/svg" xmlns:xlink="http://www.w3.org/1999/xlink" x="0px" y="0px"
	 width="267.176px" height="313.485px" viewBox="0 0 267.176 313.485" enable-background="new 0 0 267.176 313.485"
	 xml:space="preserve">
<path fill="#41CD52" d="M172.645,0h-61.208H44.37v168.689h0.091c37.278,0.518,64.647,9.549,81.347,26.848
	c2.557,2.652,4.862,5.513,6.894,8.564c2.034-3.052,4.339-5.912,6.894-8.564c16.924-17.534,44.796-26.573,82.842-26.87h0.049V49.843
	L172.645,0z M206.601,156.781h-0.044c-31.257,0.243-54.156,7.67-68.062,22.081c-2.098,2.173-3.993,4.527-5.667,7.031
	c-1.668-2.504-3.562-4.858-5.661-7.031c-13.721-14.213-36.207-21.636-66.835-22.058l-0.076-0.004V18.208h55.104l50.289-0.004
	l40.951,40.951V156.781z"/>
<path fill="#41CD52" d="M144.4,200.175c-5.132,5.315-9.028,11.451-11.699,18.353c-2.67-6.901-6.566-13.037-11.696-18.353
	c-15.438-15.994-41.229-24.318-76.635-24.809v10.383c23.437,0.365,53.315,4.596,69.823,21.7
	c6.819,7.062,10.964,16.009,12.459,26.639h12.098c1.497-10.63,5.642-19.577,12.461-26.639c16.85-17.459,47.632-21.503,71.274-21.716
	v-10.39C186.329,175.621,160.046,183.96,144.4,200.175z"/>
<g>
	<g>
		<rect x="82.996" y="69.435" fill="#41CD52" width="100.864" height="9.664"/>
		<rect x="82.996" y="97.219" fill="#41CD52" width="100.864" height="9.663"/>
		<rect x="82.996" y="124.999" fill="#41CD52" width="100.864" height="9.663"/>
	</g>
</g>
<g>
	<polygon fill="#4D4D4D" stroke="#4D4D4D" stroke-miterlimit="10" points="5.822,254.563 0.5,254.563 0.5,312.014 31.535,312.014 
		31.535,307.393 5.822,307.393 	"/>
	<polygon fill="#4D4D4D" stroke="#4D4D4D" stroke-miterlimit="10" points="45.522,283.929 65.515,283.929 65.515,279.309 
		45.522,279.309 45.522,259.187 73.137,259.187 73.137,254.563 40.2,254.563 40.2,312.014 74.345,312.014 74.345,307.393 
		45.522,307.393 	"/>
	<path fill="#4D4D4D" stroke="#4D4D4D" stroke-miterlimit="10" d="M111.479,304.73c-2.408,2.422-5.529,3.636-9.362,3.636
		c-5.152,0-9.168-2.222-12.039-6.665c-2.875-4.439-4.312-10.648-4.312-18.626c0-8.001,1.372-14.171,4.116-18.509
		c2.745-4.336,6.645-6.506,11.691-6.506c3.469,0,6.378,1.062,8.721,3.186c2.345,2.123,4.242,5.411,5.692,9.865l4.934-1.166
		c-1.557-5.592-3.894-9.735-7.014-12.43c-3.118-2.693-7.127-4.04-12.022-4.04c-6.941,0-12.292,2.532-16.063,7.594
		c-3.767,5.065-5.649,12.284-5.649,21.657c0,9.684,1.883,17.151,5.649,22.394c3.771,5.244,9.122,7.865,16.063,7.865
		c5.284,0,9.536-1.507,12.76-4.526c3.226-3.016,5.5-7.604,6.819-13.77l-4.7-1.047C115.647,298.614,113.887,302.312,111.479,304.73z"
		/>
	<polygon fill="#4D4D4D" stroke="#4D4D4D" stroke-miterlimit="10" points="125.772,259.187 142.789,259.187 142.789,312.014 
		148.15,312.014 148.15,259.187 165.162,259.187 165.162,254.563 125.772,254.563 	"/>
	<path fill="#4D4D4D" stroke="#4D4D4D" stroke-miterlimit="10" d="M193.172,253.631c-6.758,0-12.206,2.701-16.335,8.1
		c-4.133,5.398-6.195,12.593-6.195,21.578c0,8.987,2.063,16.179,6.195,21.576c4.129,5.402,9.577,8.101,16.335,8.101
		s12.182-2.698,16.275-8.101c4.094-5.397,6.136-12.589,6.136-21.576c0-8.985-2.042-16.18-6.136-21.578
		S199.93,253.631,193.172,253.631z M205.563,301.663c-3.028,4.466-7.161,6.703-12.391,6.703c-5.232,0-9.363-2.237-12.392-6.703
		c-3.031-4.466-4.544-10.586-4.544-18.354c0-7.794,1.513-13.92,4.544-18.374c3.028-4.453,7.159-6.68,12.392-6.68
		c5.229,0,9.362,2.227,12.391,6.68c3.031,4.454,4.544,10.58,4.544,18.374C210.106,291.077,208.594,297.197,205.563,301.663z"/>
	<path fill="#4D4D4D" stroke="#4D4D4D" stroke-miterlimit="10" d="M252.525,285.135c3.808-1.088,6.667-2.88,8.583-5.381
		c1.921-2.499,2.876-5.69,2.876-9.573c0-5.18-1.723-9.078-5.165-11.693c-3.445-2.615-8.572-3.924-15.384-3.924H227.47v57.45h5.325
		V285.91h14.177l13.361,26.104h6.023L252.525,285.135z M245.766,281.406h-12.971v-22.22h11.38c4.816,0,8.397,0.907,10.739,2.717
		c2.346,1.813,3.516,4.601,3.516,8.354c0,3.574-1.096,6.325-3.281,8.254C252.958,280.443,249.834,281.406,245.766,281.406z"/>
</g>
</svg>
