<?xml version="1.0" encoding="UTF-8" standalone="no"?>
<svg
   xmlns:dc="http://purl.org/dc/elements/1.1/"
   xmlns:cc="http://creativecommons.org/ns#"
   xmlns:rdf="http://www.w3.org/1999/02/22-rdf-syntax-ns#"
   xmlns:svg="http://www.w3.org/2000/svg"
   xmlns="http://www.w3.org/2000/svg"
   xmlns:sodipodi="http://sodipodi.sourceforge.net/DTD/sodipodi-0.dtd"
   xmlns:inkscape="http://www.inkscape.org/namespaces/inkscape"
   width="16"
   height="16"
   version="1.1"
   id="svg4"
   sodipodi:docname="search-word.svg"
   inkscape:version="0.92.2 2405546, 2018-03-11">
  <metadata
     id="metadata10">
    <rdf:RDF>
      <cc:Work
         rdf:about="">
        <dc:format>image/svg+xml</dc:format>
        <dc:type
           rdf:resource="http://purl.org/dc/dcmitype/StillImage" />
      </cc:Work>
    </rdf:RDF>
  </metadata>
  <defs
     id="defs8" />
  <sodipodi:namedview
     pagecolor="#ffffff"
     bordercolor="#666666"
     borderopacity="1"
     objecttolerance="10"
     gridtolerance="10"
     guidetolerance="10"
     inkscape:pageopacity="0"
     inkscape:pageshadow="2"
     inkscape:window-width="1920"
     inkscape:window-height="1043"
     id="namedview6"
     showgrid="false"
     inkscape:zoom="45.254834"
     inkscape:cx="6.5123537"
     inkscape:cy="6.8917559"
     inkscape:window-x="0"
     inkscape:window-y="0"
     inkscape:window-maximized="1"
     inkscape:current-layer="svg4" />
  <path
     style="fill:#5c616c;fill-opacity:1"
     d="M 3,3 C 1.02036,3 -9.9999927e-7,4.1718311 0,6.6074219 V 8.5 A 1.5,1.5 0 0 0 1.5,10 1.5,1.5 0 0 0 3,8.5 1.5,1.5 0 0 0 1.5097656,7 l -0.00781,-0.4023438 c 0,-0.948207 0.1116447,-1.5979182 0.3378907,-1.9511718 C 2.0660618,4.29323 2.453243,4.0371834 3,4 Z M 7,3 C 5.02036,3 3.999999,4.1718311 4,6.6074219 V 8.5 A 1.5,1.5 0 0 0 5.5,10 1.5,1.5 0 0 0 7,8.5 1.5,1.5 0 0 0 5.5097656,7 l -0.00781,-0.4023438 c 0,-0.948207 0.1116447,-1.5979182 0.3378907,-1.9511718 C 6.0660608,4.29323 6.453243,4.0371834 7,4 Z M 9.5,5 A 1.5,1.5 0 0 0 8,6.5 1.5,1.5 0 0 0 9.490234,8 l 0.00781,0.4023438 c 0,0.948207 -0.111645,1.5979182 -0.337891,1.9511722 C 8.9339389,10.70677 8.5467573,10.962817 8,11 v 1 c 1.97964,0 3.000001,-1.171831 3,-3.6074219 V 6.5 A 1.5,1.5 0 0 0 9.5,5 Z m 4,0 A 1.5,1.5 0 0 0 12,6.5 1.5,1.5 0 0 0 13.490234,8 l 0.0078,0.4023438 c 0,0.948207 -0.111645,1.5979182 -0.337891,1.9511722 C 12.933938,10.70677 12.546757,10.962817 12,11 v 1 c 1.97964,0 3.000001,-1.171831 3,-3.6074219 V 6.5 A 1.5,1.5 0 0 0 13.5,5 Z"
     id="path2" />
  <path
     style="fill:#5c616c;stroke:none;stroke-width:0.06779661;fill-opacity:1"
     d="M 8.040678,11.489133 V 11.01394 l 0.2542373,-0.0411 C 8.6241141,10.91962 9.0049959,10.657098 9.1919904,10.354534 9.3774432,10.054466 9.5267422,9.2371719 9.5298381,8.5050867 9.5321781,7.9511596 9.5305475,7.9457647 9.3605343,7.9457647 8.6870054,7.9457647 8.0454876,7.2386514 8.0421669,6.4925935 8.0367069,5.2649491 9.4833138,4.5924333 10.437555,5.379 c 0.470567,0.3878808 0.518377,0.5947737 0.518377,2.2432227 0,0.9924588 -0.03143,1.6284257 -0.09756,1.9740504 -0.267079,1.3958959 -1.1175811,2.2244799 -2.3939662,2.3322709 l -0.4237288,0.03579 z"
     id="path4524"
     inkscape:connector-curvature="0" />
  <path
     style="fill:#5c616c;stroke:none;stroke-width:0.00390625;fill-opacity:1"
     d="m 9.7117131,11.513295 c 0.00204,-0.0018 0.023926,-0.01759 0.048633,-0.03507 0.1798996,-0.127248 0.3444879,-0.28336 0.4858319,-0.460812 0.252616,-0.317149 0.444866,-0.723077 0.559095,-1.1805105 0.06615,-0.2648918 0.09348,-0.4533196 0.116987,-0.8066406 C 10.94809,8.6420545 10.9575,8.1721993 10.95441,7.4247931 10.952,6.840388 10.947836,6.672371 10.92997,6.438465 10.924141,6.3621478 10.9106,6.2310896 10.906461,6.2109259 l -0.0022,-0.010742 h 0.0313 c 0.0366,0 0.0324,-0.00607 0.0433,0.0625 0.01847,0.1161553 0.01782,0.070812 0.01782,1.25 0,1.1705155 -1.65e-4,1.1838055 -0.01779,1.4296875 -0.05607,0.7822203 -0.232739,1.4031726 -0.538111,1.8913516 -0.157745,0.252177 -0.36026,0.471333 -0.5979529,0.647089 l -0.048386,0.03578 h -0.043215 c -0.023798,0 -0.041548,-0.0015 -0.039504,-0.0033 z"
     id="path4526"
     inkscape:connector-curvature="0" />
  <path
     style="fill:#5c616c;stroke:none;stroke-width:0.00390625;fill-opacity:1"
     d="m 8.0037065,11.500359 v -0.499846 l 0.038086,-0.0025 c 0.052532,-0.0035 0.1567951,-0.0193 0.2234149,-0.03389 C 8.640889,10.881833 8.9448125,10.678717 9.1476483,10.374368 9.3523256,10.067256 9.4641833,9.5521406 9.492672,8.7855008 L 9.497502,8.655618 H 9.512387 9.527272 L 9.524992,8.705423 C 9.5049185,9.1437939 9.4502274,9.5471986 9.3653315,9.8830268 9.3036893,10.126869 9.2445481,10.277176 9.1635619,10.395823 9.0101537,10.620571 8.748788,10.822299 8.4830209,10.92108 c -0.078653,0.02923 -0.1439508,0.04431 -0.30158,0.06961 l -0.140625,0.02258 -9.922e-4,0.475456 c -9.556e-4,0.457983 -7.301e-4,0.475456 0.00614,0.475456 0.012211,0 0.421374,-0.03493 0.483138,-0.04125 0.3949367,-0.04038 0.7679272,-0.159625 1.078125,-0.344663 0.023633,-0.0141 0.0556,-0.03409 0.071038,-0.04442 l 0.028069,-0.01879 0.04029,0.003 0.04029,0.003 -0.046244,0.03035 c -0.2869093,0.188322 -0.6383031,0.321037 -1.0300398,0.389028 -0.189836,0.03295 -0.3718111,0.04969 -0.6219586,0.0572 l -0.084961,0.0026 z"
     id="path4528"
     inkscape:connector-curvature="0" />
</svg>
