<?xml version="1.0" encoding="UTF-8" standalone="no"?>
<svg
   xmlns:dc="http://purl.org/dc/elements/1.1/"
   xmlns:cc="http://creativecommons.org/ns#"
   xmlns:rdf="http://www.w3.org/1999/02/22-rdf-syntax-ns#"
   xmlns:svg="http://www.w3.org/2000/svg"
   xmlns="http://www.w3.org/2000/svg"
   xmlns:sodipodi="http://sodipodi.sourceforge.net/DTD/sodipodi-0.dtd"
   xmlns:inkscape="http://www.inkscape.org/namespaces/inkscape"
   width="16"
   height="16"
   version="1.1"
   id="svg4"
   sodipodi:docname="search-case.svg"
   inkscape:version="0.92.2 2405546, 2018-03-11">
  <metadata
     id="metadata10">
    <rdf:RDF>
      <cc:Work
         rdf:about="">
        <dc:format>image/svg+xml</dc:format>
        <dc:type
           rdf:resource="http://purl.org/dc/dcmitype/StillImage" />
      </cc:Work>
    </rdf:RDF>
  </metadata>
  <defs
     id="defs8" />
  <sodipodi:namedview
     pagecolor="#ffffff"
     bordercolor="#666666"
     borderopacity="1"
     objecttolerance="10"
     gridtolerance="10"
     guidetolerance="10"
     inkscape:pageopacity="0"
     inkscape:pageshadow="2"
     inkscape:window-width="1480"
     inkscape:window-height="750"
     id="namedview6"
     showgrid="false"
     inkscape:zoom="14.75"
     inkscape:cx="-6.5084746"
     inkscape:cy="8"
     inkscape:window-x="0"
     inkscape:window-y="0"
     inkscape:window-maximized="0"
     inkscape:current-layer="svg4" />
  <path
     style="fill:#5c616c;fill-opacity:1"
     d="M 4.7890625,2 1,13 h 1.90625 l 0.6796875,-2 h 3.8300781 l 0.6875,2 H 10 L 6.2109375,2 Z M 5.4980469,5.4375 6.6835938,9 H 4.3144531 Z M 11.5,8 v 1 h 3 C 14.715,9 15,9.305 15,9.5 V 10 h -2.5 c -0.46,0 -0.87,0.189375 -1.125,0.484375 C 11.12,10.774375 11,11.14 11,11.5 c 0,0.36 0.135625,0.725625 0.390625,1.015625 C 11.645625,12.805625 12.045,13 12.5,13 H 16 V 9.5 C 16,8.685 15.34,8 14.5,8 Z m 1,3 H 15 v 1 H 12.5 C 12.3,12 12.215625,11.944375 12.140625,11.859375 12.065625,11.774375 12,11.64 12,11.5 12,11.36 12.05,11.225625 12.125,11.140625 12.2,11.060625 12.29,11 12.5,11 Z"
     id="path2" />
</svg>
